<svg width="537" height="503" viewBox="0 0 537 503" fill="none" xmlns="http://www.w3.org/2000/svg">
<path fill-rule="evenodd" clip-rule="evenodd" d="M209.826 18.6629C208.258 9.40561 221.291 5.66381 224.873 14.343L231.857 31.2662C232.074 31.7937 232.241 32.3279 232.358 32.8639C249.107 28.8256 265.978 26.7918 282.685 26.634C282.667 26.0825 282.698 25.5208 282.782 24.9529L285.446 6.8854C286.816 -2.40332 300.368 -1.93445 301.092 7.42674L302.501 25.6353C302.546 26.2094 302.538 26.7739 302.483 27.3247C319.474 28.6723 336.17 31.9477 352.26 37.0115C352.414 36.4822 352.618 35.9581 352.873 35.4444L361.005 19.0525C365.178 10.6416 377.922 15.2753 375.718 24.4022L371.423 42.1899C371.288 42.7469 371.108 43.2789 370.887 43.7835C386.521 50.2558 401.421 58.4768 415.27 68.3051C415.573 67.8661 415.918 67.4459 416.306 67.0498L429.106 53.973C435.674 47.2633 446.362 55.6082 441.446 63.6073L431.865 79.1965C431.58 79.6592 431.263 80.0877 430.919 80.4813C444.989 92.461 457.682 106.263 468.595 121.709C468.568 120.226 468.559 118.753 468.551 117.306L468.551 117.298L468.551 117.295L468.549 117.038C468.517 109.63 475.216 103.936 482.806 102.874C486.434 102.393 490.119 103.129 493.284 104.967C496.449 106.805 498.915 109.641 500.296 113.03C504.616 124.021 505.346 136.097 502.38 147.527C502.138 148.557 501.853 149.585 501.531 150.75L501.53 150.751L501.529 150.756L501.529 150.758L501.527 150.764C501.404 151.206 501.276 151.669 501.143 152.158C512.239 158.412 520.939 168.179 525.873 179.921C529.838 189.376 526.077 199.033 517.339 202.868C512.84 204.801 508.434 204.293 504.4 202.183C507.968 217.896 509.78 233.701 509.944 249.364C510.411 249.362 510.885 249.395 511.364 249.466L529.43 252.13C538.719 253.499 538.25 267.051 528.888 267.775L510.682 269.184C510.204 269.221 509.733 269.222 509.271 269.19C507.936 286.204 504.669 302.924 499.608 319.038C500.035 319.178 500.457 319.351 500.873 319.557L517.263 327.689C525.674 331.862 521.04 344.605 511.913 342.401L494.128 338.107C493.68 337.999 493.249 337.861 492.835 337.697C486.36 353.358 478.131 368.283 468.289 382.154C468.628 382.407 468.955 382.686 469.267 382.991L482.342 395.79C489.052 402.357 480.707 413.045 472.708 408.129L457.121 398.549C456.759 398.327 456.418 398.084 456.098 397.824C445.19 410.635 432.772 422.303 418.979 432.526C419.213 432.86 419.428 433.214 419.623 433.587L428.086 449.767C432.438 458.086 421.199 465.673 415.111 458.525L403.27 444.625C402.996 444.303 402.747 443.968 402.524 443.624C390.871 450.753 378.4 456.917 365.177 461.97C362.283 463.076 359.38 464.119 356.469 465.098C356.587 465.483 356.681 465.88 356.75 466.289L359.806 484.336C361.374 493.593 348.341 497.335 344.759 488.656L337.776 471.734C337.621 471.359 337.493 470.982 337.389 470.602C320.603 474.654 303.694 476.693 286.949 476.848C286.942 477.244 286.909 477.645 286.849 478.05L284.186 496.113C282.816 505.402 269.264 504.933 268.54 495.572L267.131 477.367C267.099 476.956 267.094 476.55 267.114 476.15C250.088 474.793 233.357 471.5 217.237 466.411C217.104 466.797 216.945 467.18 216.758 467.558L208.627 483.946C204.454 492.357 191.71 487.723 193.914 478.596L198.208 460.813C198.308 460.397 198.434 459.996 198.583 459.609C182.927 453.109 168.01 444.855 154.149 434.988C153.899 435.322 153.624 435.644 153.323 435.951L140.526 449.026C133.958 455.735 123.27 447.39 128.186 439.391L137.765 423.805C137.99 423.439 138.235 423.095 138.498 422.773C125.708 411.849 114.062 399.416 103.862 385.611C103.506 385.865 103.129 386.098 102.729 386.307L86.5487 394.77C78.2289 399.121 70.6427 387.882 77.7902 381.794L91.6904 369.953C92.0435 369.653 92.4114 369.383 92.7912 369.144C87.2068 359.986 82.2176 350.324 77.8946 340.19L47.2082 380.87C43.1404 386.263 35.2076 386.839 30.9594 381.587C1.87856 345.639 -1.71538 298.095 1.13517 269.049C1.82058 262.064 9.13273 258.213 15.5987 260.941L61.5593 280.331C60.4101 271.414 59.8084 262.501 59.7349 253.634C59.2522 253.639 58.7621 253.606 58.2674 253.533L40.2021 250.869C30.9134 249.499 31.3823 235.948 40.7434 235.223L58.9497 233.814C59.4585 233.775 59.9596 233.776 60.4503 233.815C61.82 216.816 65.1194 200.113 70.2088 184.019C69.7196 183.87 69.2352 183.678 68.7597 183.442L52.3691 175.31C43.9583 171.137 48.592 158.393 57.7188 160.597L75.505 164.892C76.0301 165.019 76.5328 165.186 77.0113 165.39C83.5074 149.762 91.752 134.871 101.604 121.032C101.171 120.732 100.757 120.391 100.366 120.009L87.2897 107.209C80.58 100.641 88.9249 89.9531 96.924 94.8694L112.513 104.45C112.978 104.736 113.408 105.055 113.804 105.401C124.71 92.6309 137.121 81.0001 150.901 70.8104C150.57 70.3801 150.271 69.9144 150.01 69.4145L141.545 53.232C137.194 44.9123 148.433 37.326 154.521 44.4736L166.364 58.3759C166.736 58.8126 167.06 59.2719 167.337 59.7484C178.94 52.6655 191.351 46.538 204.506 41.511C207.433 40.3927 210.368 39.3395 213.311 38.3507C213.123 37.8295 212.979 37.2835 212.883 36.7154L209.826 18.6629ZM103.794 320.922C142.004 420.914 254.038 470.999 354.029 432.789C453.085 394.937 503.162 284.634 466.942 185.362C454.931 195.452 440.518 204.595 423.756 210.739C386.154 224.52 357.445 230.524 333.216 232.899C305.664 270.782 258.826 286.587 236.164 289.841L239.051 233.113C224.292 233.727 208.434 235.67 189.889 240.434C155.067 249.379 122.632 263.968 93.1922 280.909C95.2478 294.325 98.7523 307.728 103.794 320.922ZM153.185 325.804C143.9 327.456 135.033 321.268 133.381 311.983C131.728 302.697 137.916 293.83 147.201 292.178C156.487 290.526 165.354 296.714 167.006 305.999C168.658 315.285 162.471 324.151 153.185 325.804ZM231.91 327.866C225.85 328.944 220.063 324.906 218.984 318.845C217.906 312.785 221.945 306.998 228.005 305.919C234.065 304.841 239.852 308.879 240.931 314.94C242.009 321 237.97 326.787 231.91 327.866ZM331.881 323.96C325.82 325.038 320.033 320.999 318.955 314.939C317.876 308.879 321.915 303.092 327.975 302.013C334.035 300.935 339.822 304.973 340.901 311.034C341.979 317.094 337.941 322.881 331.881 323.96ZM352.7 377.349C353.778 383.409 359.565 387.448 365.625 386.37C371.686 385.291 375.724 379.504 374.646 373.444C373.567 367.383 367.78 363.345 361.72 364.423C355.66 365.502 351.621 371.289 352.7 377.349ZM235.87 404.558C229.809 405.636 224.022 401.598 222.944 395.538C221.865 389.477 225.904 383.69 231.964 382.612C238.025 381.533 243.812 385.572 244.89 391.632C245.969 397.692 241.93 403.48 235.87 404.558ZM175.72 357.449C176.798 363.509 182.585 367.548 188.645 366.469C194.706 365.391 198.744 359.604 197.666 353.543C196.587 347.483 190.8 343.444 184.74 344.523C178.68 345.601 174.641 351.388 175.72 357.449ZM284.545 361.037C278.485 362.115 272.698 358.076 271.619 352.016C270.541 345.956 274.579 340.169 280.64 339.09C286.7 338.012 292.487 342.05 293.565 348.111C294.644 354.171 290.605 359.958 284.545 361.037ZM379.686 315.449C381.338 324.734 390.205 330.922 399.49 329.27C408.775 327.617 414.963 318.75 413.311 309.465C411.658 300.179 402.792 293.992 393.506 295.644C384.221 297.296 378.033 306.163 379.686 315.449ZM284.094 402.002C285.747 411.288 294.614 417.476 303.899 415.823C313.184 414.171 319.372 405.304 317.72 396.019C316.067 386.733 307.201 380.545 297.915 382.198C288.63 383.85 282.442 392.717 284.094 402.002ZM414.668 139.97C418.085 154.986 409.222 169.807 394.872 173.073C380.521 176.339 366.117 166.814 362.699 151.798C359.281 136.782 368.144 121.962 382.495 118.695C396.846 115.429 411.25 124.954 414.668 139.97Z" fill="url(#paint0_linear_889_1188)"/>
<path d="M395.96 160.032C402.424 158.561 406.287 151.322 404.589 143.864C402.892 136.405 396.276 131.552 389.813 133.023C383.35 134.494 379.486 141.733 381.184 149.191C382.881 156.649 389.497 161.503 395.96 160.032Z" fill="#4A98EA"/>
<defs>
<linearGradient id="paint0_linear_889_1188" x1="314.203" y1="0.157216" x2="534.284" y2="358.196" gradientUnits="userSpaceOnUse">
<stop offset="0.0677083" stop-color="#874FFF"/>
<stop offset="0.463542" stop-color="#36AFE2"/>
<stop offset="0.859375" stop-color="#41FF54"/>
</linearGradient>
</defs>
</svg>
